<svg width="200" height="200" viewBox="0 0 200 200" fill="none" xmlns="http://www.w3.org/2000/svg">
<path d="M200 152.96H0V153.06H200V152.96Z" fill="#EBEBEB"/>
<path d="M179.96 159.396H174V159.496H179.96V159.396Z" fill="#EBEBEB"/>
<path d="M132.488 160.484H129.012V160.584H132.488V160.484Z" fill="#EBEBEB"/>
<path d="M172.312 155.684H158.636V155.784H172.312V155.684Z" fill="#EBEBEB"/>
<path d="M43.8522 157.748H26.5762V157.848H43.8522V157.748Z" fill="#EBEBEB"/>
<path d="M53.6441 157.748H47.4121V157.848H53.6441V157.748Z" fill="#EBEBEB"/>
<path d="M101.904 156.404H64.4316V156.504H101.904V156.404Z" fill="#EBEBEB"/>
<path d="M94.8002 135.12H17.5642C16.9591 135.119 16.3792 134.878 15.9517 134.45C15.5243 134.021 15.2842 133.441 15.2842 132.836V24.264C15.2894 23.6624 15.5319 23.0872 15.9588 22.6633C16.3857 22.2394 16.9626 22.001 17.5642 22H94.8002C95.4059 22 95.9869 22.2406 96.4152 22.669C96.8435 23.0973 97.0842 23.6782 97.0842 24.284V132.836C97.0842 133.442 96.8435 134.023 96.4152 134.451C95.9869 134.879 95.4059 135.12 94.8002 135.12ZM17.5642 22.08C16.9856 22.0811 16.4312 22.3116 16.0224 22.7211C15.6137 23.1306 15.3842 23.6855 15.3842 24.264V132.836C15.3842 133.415 15.6137 133.969 16.0224 134.379C16.4312 134.788 16.9856 135.019 17.5642 135.02H94.8002C95.3791 135.019 95.934 134.788 96.3433 134.379C96.7527 133.97 96.9831 133.415 96.9842 132.836V24.264C96.9831 23.6851 96.7527 23.1302 96.3433 22.7208C95.934 22.3115 95.3791 22.0811 94.8002 22.08H17.5642Z" fill="#EBEBEB"/>
<path d="M181.324 135.12H104.084C103.478 135.119 102.898 134.878 102.47 134.45C102.042 134.022 101.801 133.441 101.8 132.836V24.264C101.806 23.662 102.049 23.0868 102.477 22.663C102.904 22.2392 103.482 22.001 104.084 22H181.324C181.925 22.0021 182.501 22.2409 182.927 22.6647C183.353 23.0885 183.595 23.6631 183.6 24.264V132.836C183.6 133.44 183.36 134.02 182.934 134.448C182.507 134.876 181.928 135.118 181.324 135.12ZM104.084 22.08C103.505 22.0811 102.95 22.3115 102.541 22.7208C102.131 23.1302 101.901 23.6851 101.9 24.264V132.836C101.901 133.415 102.131 133.97 102.541 134.379C102.95 134.788 103.505 135.019 104.084 135.02H181.324C181.903 135.019 182.458 134.788 182.867 134.379C183.276 133.97 183.507 133.415 183.508 132.836V24.264C183.507 23.6851 183.276 23.1302 182.867 22.7208C182.458 22.3115 181.903 22.0811 181.324 22.08H104.084Z" fill="#EBEBEB"/>
<path d="M67.6961 46.3999H29.8281V152.96H67.6961V46.3999Z" fill="#E0E0E0"/>
<path d="M67.6917 152.96H168.096V46.4L67.6917 46.4L67.6917 152.96Z" fill="#F5F5F5"/>
<path d="M71.6961 59.7319H25.8281V62.3999H71.6961V59.7319Z" fill="#EBEBEB"/>
<path d="M71.6917 62.3999L172.096 62.3999V59.7319L71.6917 59.7319V62.3999Z" fill="#E0E0E0"/>
<path d="M71.6961 75.7319H25.8281V78.3999H71.6961V75.7319Z" fill="#EBEBEB"/>
<path d="M71.6917 78.3999L172.096 78.3999V75.7319L71.6917 75.7319V78.3999Z" fill="#E0E0E0"/>
<path d="M71.6961 91.7319H25.8281V94.3999H71.6961V91.7319Z" fill="#EBEBEB"/>
<path d="M71.6917 94.3999L172.096 94.3999V91.7319L71.6917 91.7319V94.3999Z" fill="#E0E0E0"/>
<path d="M71.6961 107.732H25.8281V110.4H71.6961V107.732Z" fill="#EBEBEB"/>
<path d="M71.6917 110.4L172.096 110.4V107.732L71.6917 107.732V110.4Z" fill="#E0E0E0"/>
<path d="M71.6961 123.732H25.8281V126.4H71.6961V123.732Z" fill="#EBEBEB"/>
<path d="M71.6917 126.4L172.096 126.4V123.732L71.6917 123.732V126.4Z" fill="#E0E0E0"/>
<path d="M71.6961 139.732H25.8281V142.4H71.6961V139.732Z" fill="#EBEBEB"/>
<path d="M71.6917 142.4H172.096V139.732H71.6917V142.4Z" fill="#E0E0E0"/>
<path d="M98.0521 14H40.4521V42.4H98.0521V14Z" fill="#F5F5F5"/>
<path d="M71.6917 42.3999H66.8037V46.3999H71.6917V42.3999Z" fill="#E0E0E0"/>
<path d="M98.0521 39.312H40.4521V42.4H98.0521V39.312Z" fill="#F0F0F0"/>
<path d="M98.0521 14H40.4521V17.088H98.0521V14Z" fill="#F0F0F0"/>
<path d="M150.452 25.8401H121.896V43.8641H150.452V25.8401Z" fill="#F5F5F5"/>
<path d="M137.724 43.8601H134.62V46.4001H137.724V43.8601Z" fill="#E0E0E0"/>
<path d="M150.452 41.9041H121.896V43.8641H150.452V41.9041Z" fill="#F0F0F0"/>
<path d="M150.452 25.8401H121.896V27.8001H150.452V25.8401Z" fill="#F0F0F0"/>
<path d="M152.752 49.6321H142.652V59.7321H152.752V49.6321Z" fill="#E6E6E6"/>
<path d="M152.748 59.7361H162.516V49.6361H152.748V59.7361Z" fill="white"/>
<path d="M140.752 49.6321H130.652V59.7321H140.752V49.6321Z" fill="#E6E6E6"/>
<path d="M140.748 59.7361H150.516V49.6361H140.748V59.7361Z" fill="white"/>
<path d="M128.752 49.6321H118.652V59.7321H128.752V49.6321Z" fill="#E6E6E6"/>
<path d="M128.748 59.7361H138.516V49.6361H128.748V59.7361Z" fill="white"/>
<path d="M116.752 49.6321H106.652V59.7321H116.752V49.6321Z" fill="#E6E6E6"/>
<path d="M116.748 59.7361H126.516V49.6361H116.748V59.7361Z" fill="white"/>
<path d="M37.0043 75.7361H41.2363V65.1121H37.0043V75.7361Z" fill="#F0F0F0"/>
<path d="M37.008 65.1079H32.916V75.7319H37.008V65.1079Z" fill="white"/>
<path d="M42.0317 75.7361H46.2637V65.1121H42.0317V75.7361Z" fill="#F0F0F0"/>
<path d="M42.0324 65.1079H37.9404V75.7319H42.0324V65.1079Z" fill="white"/>
<path d="M47.0561 75.7361H51.2881V65.1121H47.0561V75.7361Z" fill="#F0F0F0"/>
<path d="M47.0598 65.1079H42.9678V75.7319H47.0598V65.1079Z" fill="white"/>
<path d="M52.0883 75.7361H56.3203V65.1121H52.0883V75.7361Z" fill="#F0F0F0"/>
<path d="M52.0881 65.1079H47.9961V75.7319H52.0881V65.1079Z" fill="white"/>
<path d="M40.4681 123.736H46.1641V116.58H40.4681V123.736Z" fill="#F0F0F0"/>
<path d="M40.468 116.576H34.96V123.732H40.468V116.576Z" fill="white"/>
<path d="M47.2356 123.736H52.9316V116.58H47.2356V123.736Z" fill="#F0F0F0"/>
<path d="M47.2355 116.576H41.7275V123.732H47.2355V116.576Z" fill="white"/>
<path d="M54.0042 123.736H59.7002V116.58H54.0042V123.736Z" fill="#F0F0F0"/>
<path d="M54.0041 116.576H48.4961V123.732H54.0041V116.576Z" fill="white"/>
<path d="M60.7679 123.736H66.4639V116.58H60.7679V123.736Z" fill="#F0F0F0"/>
<path d="M60.7717 116.576H55.2637V123.732H60.7717V116.576Z" fill="white"/>
<path d="M154.636 81.6321H149.04V91.7321H154.636V81.6321Z" fill="#E6E6E6"/>
<path d="M154.64 91.7361H160.052V81.6361H154.64V91.7361Z" fill="white"/>
<path d="M147.984 81.6321H142.388V91.7321H147.984V81.6321Z" fill="#E6E6E6"/>
<path d="M147.984 91.7361H153.396V81.6361H147.984V91.7361Z" fill="white"/>
<path d="M141.332 81.6321H135.736V91.7321H141.332V81.6321Z" fill="#E6E6E6"/>
<path d="M141.336 91.7361H146.748V81.6361H141.336V91.7361Z" fill="white"/>
<path d="M134.684 81.6321H129.088V91.7321H134.684V81.6321Z" fill="#E6E6E6"/>
<path d="M134.688 91.7361H140.1V81.6361H134.688V91.7361Z" fill="white"/>
<path d="M120.132 81.6321H114.536V91.7321H120.132V81.6321Z" fill="#E6E6E6"/>
<path d="M120.136 91.7361H125.548V81.6361H120.136V91.7361Z" fill="white"/>
<path d="M113.48 81.6321H107.884V91.7321H113.48V81.6321Z" fill="#E6E6E6"/>
<path d="M113.484 91.7361H118.896V81.6361H113.484V91.7361Z" fill="white"/>
<path d="M106.832 81.6321H101.236V91.7321H106.832V81.6321Z" fill="#E6E6E6"/>
<path d="M106.832 91.7361H112.244V81.6361H106.832V91.7361Z" fill="white"/>
<path d="M100.18 81.6321H94.584V91.7321H100.18V81.6321Z" fill="#E6E6E6"/>
<path d="M100.184 91.7361H105.596V81.6361H100.184V91.7361Z" fill="white"/>
<path d="M145.516 116.58H131.876V123.712H145.516V116.58Z" fill="#E6E6E6"/>
<path d="M145.516 123.708H158.704V116.576H145.516V123.708Z" fill="white"/>
<path d="M129.308 116.58H115.668V123.712H129.308V116.58Z" fill="#E6E6E6"/>
<path d="M129.312 123.708H142.5V116.576H129.312V123.708Z" fill="white"/>
<path d="M113.104 116.58H99.4639V123.712H113.104V116.58Z" fill="#E6E6E6"/>
<path d="M113.104 123.708H126.292V116.576H113.104V123.708Z" fill="white"/>
<path d="M96.8998 116.58H83.2598V123.712H96.8998V116.58Z" fill="#E6E6E6"/>
<path d="M96.8999 123.708H110.088V116.576H96.8999V123.708Z" fill="white"/>
<path d="M83.4844 75.7319C85.9697 75.7319 87.9844 73.7172 87.9844 71.2319C87.9844 68.7467 85.9697 66.7319 83.4844 66.7319C80.9991 66.7319 78.9844 68.7467 78.9844 71.2319C78.9844 73.7172 80.9991 75.7319 83.4844 75.7319Z" fill="#E6E6E6"/>
<path d="M95.4844 75.7319C97.9697 75.7319 99.9844 73.7172 99.9844 71.2319C99.9844 68.7467 97.9697 66.7319 95.4844 66.7319C92.9991 66.7319 90.9844 68.7467 90.9844 71.2319C90.9844 73.7172 92.9991 75.7319 95.4844 75.7319Z" fill="#E6E6E6"/>
<path d="M107.484 75.7319C109.97 75.7319 111.984 73.7172 111.984 71.2319C111.984 68.7467 109.97 66.7319 107.484 66.7319C104.999 66.7319 102.984 68.7467 102.984 71.2319C102.984 73.7172 104.999 75.7319 107.484 75.7319Z" fill="#E6E6E6"/>
<path d="M119.484 75.7319C121.97 75.7319 123.984 73.7172 123.984 71.2319C123.984 68.7467 121.97 66.7319 119.484 66.7319C116.999 66.7319 114.984 68.7467 114.984 71.2319C114.984 73.7172 116.999 75.7319 119.484 75.7319Z" fill="#E6E6E6"/>
<path d="M35.9524 107.66C37.5477 107.283 38.5358 105.685 38.1592 104.089C37.7827 102.494 36.1842 101.506 34.5888 101.882C32.9935 102.259 32.0054 103.857 32.382 105.453C32.7585 107.048 34.357 108.036 35.9524 107.66Z" fill="#E6E6E6"/>
<path d="M43.8655 107.658C45.4608 107.282 46.4489 105.683 46.0723 104.088C45.6958 102.492 44.0973 101.504 42.5019 101.881C40.9066 102.258 39.9185 103.856 40.2951 105.451C40.6716 107.047 42.2701 108.035 43.8655 107.658Z" fill="#E6E6E6"/>
<path d="M53.8426 105.903C54.4699 104.388 53.7507 102.652 52.2363 102.025C50.7219 101.397 48.9857 102.117 48.3585 103.631C47.7312 105.145 48.4503 106.882 49.9647 107.509C51.4791 108.136 53.2153 107.417 53.8426 105.903Z" fill="#E6E6E6"/>
<path d="M61.1096 106.868C62.2686 105.709 62.2686 103.83 61.1096 102.671C59.9505 101.512 58.0712 101.512 56.9122 102.671C55.7531 103.83 55.7531 105.709 56.9122 106.868C58.0712 108.027 59.9505 108.027 61.1096 106.868Z" fill="#E6E6E6"/>
<path d="M136.003 137.834C136.655 136.261 135.907 134.457 134.334 133.805C132.76 133.153 130.956 133.9 130.304 135.474C129.652 137.047 130.4 138.851 131.973 139.503C133.547 140.155 135.351 139.408 136.003 137.834Z" fill="white"/>
<path d="M141.654 139.164C143.306 138.773 144.328 137.116 143.936 135.463C143.545 133.811 141.888 132.79 140.236 133.181C138.583 133.573 137.562 135.23 137.953 136.882C138.345 138.534 140.002 139.556 141.654 139.164Z" fill="white"/>
<path d="M152.441 137.834C153.093 136.26 152.346 134.456 150.772 133.804C149.199 133.152 147.395 133.9 146.743 135.473C146.091 137.047 146.838 138.851 148.412 139.503C149.985 140.155 151.789 139.407 152.441 137.834Z" fill="white"/>
<path d="M160.663 137.831C161.315 136.258 160.567 134.454 158.994 133.802C157.42 133.15 155.616 133.897 154.964 135.471C154.313 137.045 155.06 138.849 156.633 139.501C158.207 140.152 160.011 139.405 160.663 137.831Z" fill="white"/>
<path d="M139.566 134.528C140.77 133.323 140.77 131.371 139.566 130.166C138.361 128.962 136.409 128.962 135.204 130.166C134 131.371 134 133.323 135.204 134.528C136.409 135.732 138.361 135.732 139.566 134.528Z" fill="white"/>
<path d="M148.455 133.527C149.107 131.953 148.359 130.149 146.786 129.498C145.212 128.846 143.408 129.593 142.756 131.167C142.105 132.74 142.852 134.544 144.425 135.196C145.999 135.848 147.803 135.101 148.455 133.527Z" fill="white"/>
<path d="M154.066 134.87C155.719 134.478 156.74 132.821 156.349 131.169C155.957 129.517 154.3 128.495 152.648 128.887C150.996 129.278 149.974 130.935 150.366 132.587C150.757 134.24 152.414 135.261 154.066 134.87Z" fill="white"/>
<path d="M95.423 138.834C96.6274 137.629 96.6274 135.676 95.423 134.472C94.2186 133.268 92.266 133.268 91.0616 134.472C89.8572 135.676 89.8572 137.629 91.0616 138.834C92.266 140.038 94.2186 140.038 95.423 138.834Z" fill="white"/>
<path d="M104.31 137.834C104.962 136.26 104.215 134.456 102.641 133.804C101.068 133.153 99.2636 133.9 98.6118 135.474C97.96 137.047 98.7073 138.851 100.281 139.503C101.854 140.155 103.659 139.407 104.31 137.834Z" fill="white"/>
<path d="M110.386 139.661C112.044 139.27 113.071 137.609 112.679 135.951C112.288 134.293 110.627 133.267 108.969 133.658C107.312 134.049 106.285 135.71 106.676 137.368C107.067 139.025 108.728 140.052 110.386 139.661Z" fill="white"/>
<path d="M120.75 137.829C121.402 136.256 120.654 134.452 119.081 133.8C117.507 133.148 115.703 133.895 115.051 135.469C114.399 137.042 115.147 138.847 116.72 139.498C118.294 140.15 120.098 139.403 120.75 137.829Z" fill="white"/>
<path d="M100.32 133.527C100.972 131.954 100.225 130.15 98.651 129.498C97.0774 128.846 95.2734 129.593 94.6216 131.167C93.9698 132.74 94.7171 134.545 96.2906 135.196C97.8642 135.848 99.6683 135.101 100.32 133.527Z" fill="white"/>
<path d="M107.872 134.529C109.077 133.325 109.077 131.372 107.872 130.168C106.668 128.964 104.715 128.964 103.511 130.168C102.306 131.372 102.306 133.325 103.511 134.529C104.715 135.734 106.668 135.734 107.872 134.529Z" fill="white"/>
<path d="M116.76 133.527C117.411 131.953 116.664 130.149 115.09 129.497C113.517 128.845 111.713 129.593 111.061 131.166C110.409 132.74 111.157 134.544 112.73 135.196C114.304 135.847 116.108 135.1 116.76 133.527Z" fill="white"/>
<path d="M150.784 99.6799L153.044 107.732H141.204L150.784 99.6799Z" fill="#E0E0E0"/>
<path d="M150.784 99.6799L146.668 107.732H159.16L150.784 99.6799Z" fill="white"/>
<path d="M132.06 99.6799L134.32 107.732H122.476L132.06 99.6799Z" fill="#E0E0E0"/>
<path d="M132.06 99.6799L127.944 107.732H140.436L132.06 99.6799Z" fill="white"/>
<path d="M113.332 99.6799L115.596 107.732H103.752L113.332 99.6799Z" fill="#E0E0E0"/>
<path d="M113.332 99.6799L109.216 107.732H121.712L113.332 99.6799Z" fill="white"/>
<path d="M36.2795 83.9121L35.0195 91.7321H41.6235L36.2795 83.9121Z" fill="#F5F5F5"/>
<path d="M36.2804 83.9121L38.5764 91.7321H31.6084L36.2804 83.9121Z" fill="white"/>
<path d="M46.7239 83.9121L45.4639 91.7321H52.0679L46.7239 83.9121Z" fill="#F5F5F5"/>
<path d="M46.7238 83.9121L49.0198 91.7321H42.0518L46.7238 83.9121Z" fill="white"/>
<path d="M57.1683 83.9121L55.9043 91.7321H62.5123L57.1683 83.9121Z" fill="#F5F5F5"/>
<path d="M57.1681 83.9121L59.4641 91.7321H52.4961L57.1681 83.9121Z" fill="white"/>
<path d="M94.6083 99.6799L96.8683 107.732H85.0283L94.6083 99.6799Z" fill="#E0E0E0"/>
<path d="M94.6082 99.6799L90.4922 107.732H102.988L94.6082 99.6799Z" fill="white"/>
<path d="M100 171.024C142.833 171.024 177.556 168.997 177.556 166.496C177.556 163.995 142.833 161.968 100 161.968C57.1673 161.968 22.4443 163.995 22.4443 166.496C22.4443 168.997 57.1673 171.024 100 171.024Z" fill="#F5F5F5"/>
<path d="M116.8 114.276H149.916C150.592 114.276 151.24 114.544 151.718 115.022C152.195 115.5 152.464 116.148 152.464 116.824C152.464 117.5 152.195 118.148 151.718 118.626C151.24 119.103 150.592 119.372 149.916 119.372H116.8V114.276Z" fill="#2196F3"/>
<path opacity="0.6" d="M116.8 114.276H149.916C150.592 114.276 151.24 114.544 151.718 115.022C152.195 115.5 152.464 116.148 152.464 116.824C152.464 117.5 152.195 118.148 151.718 118.626C151.24 119.103 150.592 119.372 149.916 119.372H116.8V114.276Z" fill="white"/>
<path d="M150.395 99.262C150.881 97.2044 149.606 95.1427 147.549 94.6571C145.491 94.1714 143.429 95.4458 142.944 97.5034C142.458 99.561 143.732 101.623 145.79 102.108C147.848 102.594 149.909 101.32 150.395 99.262Z" fill="#2196F3"/>
<path opacity="0.8" d="M150.395 99.262C150.881 97.2044 149.606 95.1427 147.549 94.6571C145.491 94.1714 143.429 95.4458 142.944 97.5034C142.458 99.561 143.732 101.623 145.79 102.108C147.848 102.594 149.909 101.32 150.395 99.262Z" fill="white"/>
<path d="M120.324 98.8999H151.968L148.936 114.276H123.352L120.324 98.8999Z" fill="#263238"/>
<path d="M119.44 97.4239H152.848C152.921 97.4234 152.994 97.4402 153.06 97.4727C153.126 97.5053 153.183 97.5528 153.227 97.6115C153.272 97.6701 153.302 97.7383 153.315 97.8106C153.328 97.8829 153.324 97.9573 153.304 98.0279L152.904 99.3919C152.875 99.4901 152.814 99.5762 152.732 99.6375C152.65 99.6987 152.55 99.7318 152.448 99.7319H119.836C119.733 99.7318 119.634 99.6987 119.551 99.6375C119.469 99.5762 119.409 99.4901 119.38 99.3919L118.98 98.0279C118.959 97.957 118.955 97.8822 118.969 97.8096C118.982 97.737 119.013 97.6686 119.057 97.6099C119.102 97.5511 119.16 97.5037 119.226 97.4714C119.293 97.4391 119.366 97.4228 119.44 97.4239Z" fill="#2196F3"/>
<path opacity="0.6" d="M119.44 97.4239H152.848C152.921 97.4234 152.994 97.4402 153.06 97.4727C153.126 97.5053 153.183 97.5528 153.227 97.6115C153.272 97.6701 153.302 97.7383 153.315 97.8106C153.328 97.8829 153.324 97.9573 153.304 98.0279L152.904 99.3919C152.875 99.4901 152.814 99.5762 152.732 99.6375C152.65 99.6987 152.55 99.7318 152.448 99.7319H119.836C119.733 99.7318 119.634 99.6987 119.551 99.6375C119.469 99.5762 119.409 99.4901 119.38 99.3919L118.98 98.0279C118.959 97.957 118.955 97.8822 118.969 97.8096C118.982 97.737 119.013 97.6686 119.057 97.6099C119.102 97.5511 119.16 97.5037 119.226 97.4714C119.293 97.4391 119.366 97.4228 119.44 97.4239Z" fill="white"/>
<path d="M138.612 95.5999H123.412V97.4239H138.612V95.5999Z" fill="#2196F3"/>
<path opacity="0.2" d="M138.612 95.5999H123.412V97.4239H138.612V95.5999Z" fill="black"/>
<path d="M132.144 100.752C132.109 100.861 132.036 100.955 131.939 101.016C131.842 101.077 131.726 101.103 131.612 101.088C130.412 100.884 129.82 99.7919 130.256 98.4759L133.316 89.2399C133.8 87.7799 135.38 86.5959 136.836 86.5959H142.256C143.712 86.5959 144.504 87.7959 144.024 89.2399L141.308 97.4239H140.4L143.112 89.2399C143.432 88.2839 142.912 87.5039 141.956 87.5039H136.536C136.024 87.5376 135.533 87.7197 135.122 88.0279C134.711 88.3362 134.399 88.7574 134.224 89.2399L131.164 98.4759C130.904 99.2559 131.204 99.9199 131.84 100.136C131.901 100.156 131.957 100.188 132.005 100.23C132.053 100.272 132.092 100.323 132.12 100.381C132.149 100.438 132.165 100.5 132.169 100.564C132.174 100.628 132.165 100.692 132.144 100.752Z" fill="#2196F3"/>
<path d="M123.516 96.248H71.9961C70.0852 96.248 68.5361 97.7971 68.5361 99.7081V163.036C68.5361 164.947 70.0852 166.496 71.9961 166.496H123.516C125.427 166.496 126.976 164.947 126.976 163.036V99.7081C126.976 97.7971 125.427 96.248 123.516 96.248Z" fill="#2196F3"/>
<path d="M82.7599 122.488H34.7599C34.0838 122.489 33.4357 122.758 32.958 123.237C32.4803 123.715 32.2119 124.364 32.2119 125.04C32.2104 125.376 32.2751 125.708 32.4024 126.019C32.5298 126.329 32.7172 126.612 32.954 126.85C33.1907 127.087 33.4722 127.276 33.7821 127.405C34.092 127.534 34.4243 127.6 34.7599 127.6H82.7599V122.488Z" fill="#2196F3"/>
<path opacity="0.3" d="M82.7597 129L68.5957 135.412V127.584H82.7597V129Z" fill="#263238"/>
<path opacity="0.7" d="M82.7596 122.488H52.1876C51.5115 122.489 50.8634 122.758 50.3857 123.237C49.908 123.715 49.6396 124.364 49.6396 125.04C49.6407 125.715 49.9095 126.363 50.3871 126.841C50.8647 127.318 51.5122 127.587 52.1876 127.588H82.7596V122.488Z" fill="white"/>
<path opacity="0.7" d="M123.516 96.248H87.9561C86.0452 96.248 84.4961 97.7971 84.4961 99.7081V163.036C84.4961 164.947 86.0452 166.496 87.9561 166.496H123.516C125.427 166.496 126.976 164.947 126.976 163.036V99.7081C126.976 97.7971 125.427 96.248 123.516 96.248Z" fill="white"/>
<path d="M55.5158 127.588H51.1758V166.496H55.5158V127.588Z" fill="#2196F3"/>
<path opacity="0.7" d="M55.5158 127.588H51.1758V166.496H55.5158V127.588Z" fill="white"/>
<path opacity="0.3" d="M55.5158 129.276L51.1758 130.216V127.584H55.5158V129.276Z" fill="#2196F3"/>
<path opacity="0.3" d="M122.008 104.552H89.4597C88.914 104.552 88.4717 104.994 88.4717 105.54V116.656C88.4717 117.202 88.914 117.644 89.4597 117.644H122.008C122.553 117.644 122.996 117.202 122.996 116.656V105.54C122.996 104.994 122.553 104.552 122.008 104.552Z" fill="#2196F3"/>
<path d="M63.7959 89.364H40.0759L37.6719 122.492H66.1999L63.7959 89.364Z" fill="#2196F3"/>
<path opacity="0.3" d="M43.2239 89.364H40.0759L37.6719 122.492H44.0559L43.2239 89.364Z" fill="#263238"/>
<path d="M53.3796 93.404C51.1636 93.404 49.1796 91.848 48.8476 89.776C48.7659 89.2743 48.7891 88.7611 48.9158 88.2689C49.0425 87.7766 49.2699 87.316 49.5836 86.916C49.9481 86.464 50.4012 86.0914 50.9151 85.8211C51.4289 85.5507 51.9927 85.3884 52.5716 85.344C54.9516 85.128 57.1756 86.748 57.5276 88.944C57.6089 89.4466 57.5851 89.9606 57.4577 90.4536C57.3303 90.9465 57.1022 91.4077 56.7876 91.808C56.4242 92.2603 55.9719 92.6331 55.4587 92.9035C54.9454 93.1739 54.3821 93.3361 53.8036 93.38C53.6596 93.396 53.5196 93.404 53.3796 93.404ZM52.9996 86.028C52.8796 86.028 52.7556 86.028 52.6356 86.028C52.1528 86.0644 51.6825 86.1989 51.2534 86.4231C50.8242 86.6472 50.4453 86.9565 50.1396 87.332C49.8854 87.6566 49.7012 88.0303 49.5986 88.4296C49.496 88.8289 49.4773 89.2451 49.5436 89.652C49.8356 91.496 51.7196 92.852 53.7396 92.668C54.2224 92.6316 54.6927 92.4972 55.1219 92.273C55.551 92.0488 55.93 91.7395 56.2356 91.364C56.4898 91.0395 56.6741 90.6658 56.7766 90.2665C56.8792 89.8672 56.8979 89.4509 56.8316 89.044C56.5556 87.328 54.8756 86.028 52.9996 86.028Z" fill="#2196F3"/>
<path d="M51.6003 93.4039C51.4603 93.4039 51.3203 93.4039 51.1763 93.4039C50.5978 93.36 50.0345 93.1978 49.5213 92.9274C49.008 92.657 48.5557 92.2841 48.1923 91.8319C47.8774 91.4319 47.6493 90.9706 47.5225 90.4775C47.3958 89.9843 47.3732 89.4702 47.4563 88.9679C47.8043 86.7679 50.0283 85.1479 52.4083 85.3679C52.9873 85.4118 53.5512 85.5739 54.0652 85.8443C54.5791 86.1147 55.0321 86.4876 55.3963 86.9399C55.7109 87.3394 55.9388 87.8 56.0656 88.2924C56.1923 88.7848 56.215 89.2982 56.1323 89.7999C55.7883 91.8479 53.8003 93.4039 51.6003 93.4039ZM52.0003 86.0279C50.1203 86.0279 48.4403 87.3279 48.1643 89.0599C48.098 89.4668 48.1167 89.883 48.2193 90.2823C48.3219 90.6816 48.5061 91.0554 48.7603 91.3799C49.0659 91.7554 49.4449 92.0647 49.874 92.2889C50.3032 92.5131 50.7735 92.6475 51.2563 92.6839C53.2763 92.8639 55.1603 91.5119 55.4563 89.6679C55.523 89.2607 55.5041 88.8441 55.4008 88.4447C55.2975 88.0452 55.1121 87.6717 54.8563 87.3479C54.5514 86.9725 54.1732 86.6633 53.7447 86.4391C53.3162 86.2149 52.8465 86.0804 52.3643 86.0439C52.2083 86.0319 52.0883 86.0279 51.9683 86.0279H52.0003Z" fill="#2196F3"/>
<path d="M94.4043 44.2239H87.3643V96.2519H94.4043V44.2239Z" fill="#2196F3"/>
<path opacity="0.3" d="M94.4043 72.0798H87.3643V85.6758L94.4043 84.8078V72.0798Z" fill="#263238"/>
<path opacity="0.3" d="M94.4043 44.5798H87.3643V48.5358L94.4043 47.6678V44.5798Z" fill="#263238"/>
<path d="M72.5003 81.7559L70.5363 53.2559C70.5199 53.0157 70.553 52.7748 70.6336 52.5479C70.7142 52.3211 70.8406 52.1133 71.0049 51.9373C71.1692 51.7614 71.3679 51.6211 71.5887 51.5252C71.8095 51.4294 72.0476 51.3799 72.2883 51.3799H116.052C116.497 51.3788 116.925 51.5469 117.251 51.8499C117.576 52.1529 117.774 52.5683 117.804 53.0119L119.764 81.5119C119.781 81.7522 119.749 81.9934 119.668 82.2205C119.588 82.4476 119.462 82.6557 119.297 82.8317C119.133 83.0078 118.934 83.148 118.713 83.2437C118.492 83.3394 118.253 83.3885 118.012 83.3879H74.2483C73.8041 83.3889 73.3763 83.2207 73.0516 82.9176C72.7269 82.6145 72.5298 82.1991 72.5003 81.7559Z" fill="#263238"/>
<path d="M115.548 52.6799H72.8644C72.7285 52.6802 72.5941 52.7083 72.4696 52.7626C72.3451 52.8169 72.233 52.8962 72.1404 52.9956C72.0477 53.0949 71.9765 53.2123 71.9311 53.3403C71.8857 53.4684 71.867 53.6044 71.8764 53.7399L73.7644 81.1639C73.7816 81.4144 73.8931 81.649 74.0764 81.8205C74.2598 81.9919 74.5013 82.0875 74.7524 82.0879H117.436C117.573 82.0883 117.707 82.0605 117.832 82.0065C117.957 81.9524 118.07 81.8732 118.163 81.7738C118.256 81.6743 118.328 81.5568 118.373 81.4285C118.419 81.3002 118.438 81.1638 118.428 81.0279L116.54 53.5999C116.522 53.3495 116.41 53.1153 116.226 52.9446C116.041 52.7738 115.799 52.6793 115.548 52.6799Z" fill="#2196F3"/>
<path opacity="0.8" d="M115.548 52.6799H72.8644C72.7285 52.6802 72.5941 52.7083 72.4696 52.7626C72.3451 52.8169 72.233 52.8962 72.1404 52.9956C72.0477 53.0949 71.9765 53.2123 71.9311 53.3403C71.8857 53.4684 71.867 53.6044 71.8764 53.7399L73.7644 81.1639C73.7816 81.4144 73.8931 81.649 74.0764 81.8205C74.2598 81.9919 74.5013 82.0875 74.7524 82.0879H117.436C117.573 82.0883 117.707 82.0605 117.832 82.0065C117.957 81.9524 118.07 81.8732 118.163 81.7738C118.256 81.6743 118.328 81.5568 118.373 81.4285C118.419 81.3002 118.438 81.1638 118.428 81.0279L116.54 53.5999C116.522 53.3495 116.41 53.1153 116.226 52.9446C116.041 52.7738 115.799 52.6793 115.548 52.6799Z" fill="white"/>
<path d="M115.98 95.2959H78.5156V96.2479H115.98V95.2959Z" fill="#263238"/>
<path opacity="0.3" d="M105.552 78.8759H77.3599L75.7959 56.1719H103.988L105.552 78.8759Z" fill="#2196F3"/>
<path opacity="0.3" d="M113.612 58.2039H106.016L105.876 56.1719H113.472L113.612 58.2039Z" fill="#2196F3"/>
<path opacity="0.3" d="M114.172 66.3919H106.576L106.18 60.5999H113.776L114.172 66.3919Z" fill="#2196F3"/>
<path d="M97.7558 36.0439H83.5918V46.6159H97.7558V36.0439Z" fill="#2196F3"/>
<path opacity="0.3" d="M89.4838 36.0439H83.5918V46.6159H89.4838V36.0439Z" fill="#263238"/>
<path d="M128.32 81.5241L129.1 80.5281C129.245 80.3434 129.432 80.1961 129.646 80.0986C129.86 80.0012 130.094 79.9564 130.328 79.9681L132.552 80.0681C132.99 80.0899 133.416 80.2155 133.796 80.4346C134.176 80.6537 134.498 80.96 134.736 81.3281L135.032 81.7921C133.832 83.5321 131.284 84.5401 131.284 84.5401L130.588 84.9081C130.447 84.988 130.292 85.0391 130.131 85.0583C129.97 85.0776 129.806 85.0647 129.651 85.0205C129.495 84.9762 129.349 84.9014 129.222 84.8004C129.096 84.6994 128.99 84.5742 128.912 84.4321L128.164 83.0561C128.039 82.8132 127.986 82.539 128.014 82.2669C128.042 81.9949 128.148 81.7368 128.32 81.5241Z" fill="#FF8B7B"/>
<path d="M136.06 61.5761C136.292 61.8601 136.46 62.0601 136.628 62.3001C136.796 62.5401 136.964 62.7601 137.128 62.9881C137.456 63.4521 137.756 63.9241 138.056 64.3961C138.638 65.3527 139.172 66.3379 139.656 67.3481C139.904 67.8521 140.128 68.3721 140.356 68.8921C140.584 69.4121 140.776 69.9441 140.96 70.4921C141.343 71.5807 141.653 72.6939 141.888 73.8241L141.932 74.0081C141.96 74.1395 141.973 74.2737 141.972 74.4081C141.97 75.123 141.834 75.8312 141.572 76.4961C141.348 77.0473 141.06 77.5697 140.712 78.0521C140.123 78.8446 139.425 79.5501 138.64 80.1481C137.937 80.6871 137.19 81.1661 136.408 81.5801C135.637 81.9896 134.834 82.336 134.008 82.6161C133.684 82.7268 133.333 82.7246 133.011 82.6096C132.69 82.4947 132.417 82.2739 132.237 81.9834C132.057 81.6929 131.981 81.35 132.021 81.0107C132.062 80.6715 132.216 80.356 132.46 80.1161L132.56 80.0201C133.052 79.5281 133.62 78.9961 134.112 78.4761C134.599 77.9755 135.059 77.448 135.488 76.8961C135.861 76.4367 136.177 75.9328 136.428 75.3961C136.628 74.9481 136.604 74.5961 136.544 74.5961L136.628 75.1641C136.328 74.3001 136.008 73.4441 135.62 72.5921C135.232 71.7401 134.82 70.9041 134.356 70.0721C133.892 69.2401 133.416 68.4241 132.9 67.6241C132.644 67.2241 132.38 66.8241 132.1 66.4241L131.7 65.8481L131.332 65.3281L131.236 65.1921C130.801 64.5562 130.627 63.7774 130.751 63.0171C130.874 62.2567 131.286 61.573 131.9 61.1077C132.514 60.6424 133.283 60.431 134.049 60.5175C134.814 60.6039 135.517 60.9815 136.012 61.5721L136.06 61.5761Z" fill="#FF8B7B"/>
<path d="M130.572 58.1839C129.444 60.7439 129.516 63.9399 132.972 68.8279C135.268 69.0799 139.516 66.0959 139.516 66.0959C139.516 66.0959 136.6 57.9159 130.572 58.1839Z" fill="#263238"/>
<path d="M128.649 49.2839C127.981 51.7639 127.157 56.3079 128.765 57.9599C128.765 57.9599 126.417 57.6079 121.433 60.6919C119.989 58.6199 121.061 57.9599 121.061 57.9599C123.861 57.2999 123.957 55.2519 123.617 53.3239L128.649 49.2839Z" fill="#FF8B7B"/>
<path d="M118.504 59.804C119.244 58.204 120.988 56.68 122.192 56.908C123.396 57.136 124.128 57.512 124.84 56.908C125.552 56.304 127.312 55.424 128.208 56.42C129.468 57.812 131.376 56.82 130.656 58.344C129.88 60 118.504 59.804 118.504 59.804Z" fill="#2196F3"/>
<path d="M119.636 44.732C119.588 45.072 119.372 45.336 119.156 45.32C118.94 45.304 118.804 45.016 118.852 44.676C118.9 44.336 119.116 44.076 119.332 44.092C119.548 44.108 119.688 44.4 119.636 44.732Z" fill="#263238"/>
<path d="M119.424 44.116L118.664 43.824C118.664 43.824 118.98 44.488 119.424 44.116Z" fill="#263238"/>
<path d="M119.564 45.3721C119.157 46.1253 118.654 46.823 118.068 47.4481C118.448 47.8961 119.22 47.7601 119.22 47.7601L119.564 45.3721Z" fill="#FF5652"/>
<path d="M119.072 42.0361C119.046 41.9928 119.038 41.9414 119.048 41.8921C119.065 41.8425 119.1 41.8012 119.146 41.7766C119.192 41.752 119.246 41.7461 119.296 41.7601C119.61 41.8302 119.904 41.9721 120.154 42.1748C120.403 42.3774 120.603 42.6353 120.736 42.9281C120.746 42.9518 120.751 42.9775 120.75 43.0032C120.749 43.029 120.742 43.0542 120.73 43.0771C120.719 43.1 120.702 43.12 120.681 43.1357C120.661 43.1514 120.637 43.1625 120.612 43.1681C120.561 43.183 120.507 43.1786 120.459 43.1558C120.411 43.1329 120.373 43.0931 120.352 43.0441C120.243 42.8142 120.082 42.6125 119.882 42.4544C119.682 42.2963 119.449 42.1861 119.2 42.1321C119.147 42.1169 119.102 42.0828 119.072 42.0361Z" fill="#263238"/>
<path d="M130.768 44.3081C130.012 48.3081 129.78 50.016 127.496 51.936C124.06 54.828 119.336 53.3001 118.888 49.2161C118.488 45.5441 119.78 39.6161 123.904 38.2921C124.781 37.9708 125.728 37.8916 126.646 38.0626C127.564 38.2336 128.419 38.6486 129.121 39.264C129.823 39.8794 130.347 40.6726 130.637 41.5601C130.926 42.4476 130.972 43.3968 130.768 44.3081Z" fill="#FF8B7B"/>
<path d="M121.8 45.6C120.352 43.332 118.784 40.5 119.768 38.532C120.752 36.564 122.988 37.032 122.988 37.032C122.988 37.032 127.32 34.6 131.2 37.768C136.344 41.98 130.828 46.616 129.464 50.632C127.956 55.052 120.18 49.7 121.8 45.6Z" fill="#263238"/>
<path d="M143.968 38.248C141.876 30.468 132.7 34.044 130.032 38.648L131.12 38.932C142.068 31.868 136.676 42.08 136.768 46.244C136.86 50.408 140.988 52.972 140.988 52.972C140.988 52.972 146.056 46.024 143.968 38.248Z" fill="#263238"/>
<path d="M141.2 52C140.032 52 138.4 51.78 137.336 50.704C136.376 49.732 136.076 48.248 136.452 46.304C136.572 45.688 136.764 44.964 136.964 44.2C137.596 41.8 138.384 38.848 137.144 37.8C136.272 37.06 134.436 37.32 131.684 38.564C131.673 38.57 131.66 38.5735 131.647 38.5743C131.633 38.5752 131.62 38.5732 131.608 38.5687C131.596 38.5642 131.584 38.5572 131.575 38.5482C131.565 38.5391 131.558 38.5282 131.552 38.516C131.547 38.504 131.544 38.491 131.544 38.4778C131.544 38.4646 131.546 38.4515 131.551 38.4392C131.556 38.427 131.563 38.4158 131.572 38.4063C131.581 38.3968 131.592 38.3893 131.604 38.384C134.468 37.084 136.324 36.844 137.272 37.648C138.608 38.776 137.84 41.684 137.16 44.252C136.956 45.012 136.76 45.732 136.648 46.344C136.288 48.232 136.568 49.656 137.48 50.58C139.18 52.3 142.556 51.716 142.592 51.708C142.606 51.7059 142.619 51.7064 142.632 51.7095C142.645 51.7126 142.657 51.7182 142.668 51.726C142.679 51.7338 142.688 51.7437 142.695 51.755C142.702 51.7663 142.706 51.7789 142.708 51.792C142.71 51.8052 142.71 51.8186 142.707 51.8315C142.704 51.8445 142.698 51.8567 142.69 51.8674C142.683 51.8782 142.673 51.8873 142.661 51.8943C142.65 51.9013 142.638 51.9059 142.624 51.908C142.153 51.9756 141.677 52.0064 141.2 52Z" fill="#263238"/>
<path d="M131.356 36.9359C131.456 36.4279 130.176 36.6399 130.116 37.0919C130.056 37.5439 129.888 37.2919 129.388 37.9519C128.888 38.6119 128.82 39.3879 130.46 39.8999C131.5 40.2239 131.66 39.4239 132.192 39.0239C132.484 38.8079 132.812 38.6959 133.024 38.5319C133.076 38.4913 133.115 38.4361 133.136 38.3733C133.156 38.3105 133.158 38.2429 133.14 38.1794C133.122 38.1158 133.085 38.059 133.034 38.0164C132.984 37.9737 132.922 37.9471 132.856 37.9399C132.184 37.8839 131.252 37.4359 131.356 36.9359Z" fill="#2196F3"/>
<path d="M122.536 47.024C122.356 47.3701 122.106 47.6749 121.802 47.9187C121.497 48.1626 121.145 48.3401 120.768 48.44C119.828 48.648 119.472 47.564 119.828 46.508C120.148 45.564 121.028 44.312 121.924 44.584C122.82 44.856 123.044 46.108 122.536 47.024Z" fill="#FF8B7B"/>
<path d="M139.652 168.468C142.76 168.004 142.82 167.488 144.488 166.904C145.916 166.4 146.316 166.472 147.468 166.084C148.432 165.76 148.104 164.844 147.468 163.868C147.152 163.38 147.104 162.916 146.756 162.048L142.032 162.748C141.576 164.068 141.412 165.756 138.716 166.72C137.112 167.296 138.4 168.652 139.652 168.468Z" fill="#263238"/>
<path d="M110.844 168.48C113.936 168.48 114.528 168.276 116.268 168.216C117.756 168.164 118 168.48 119.508 168.48C120.508 168.48 120.648 167.352 120.28 166.508C119.996 165.852 119.952 165.064 119.744 164.212H115.484C114.716 165.56 112.62 166.56 110.284 166.728C108.604 166.852 109.6 168.48 110.844 168.48Z" fill="#263238"/>
<path d="M114.456 84.252C114.456 84.252 113.84 106.484 115.16 120.604C115.076 133.856 115.484 164.204 115.484 164.204C115.588 164.88 119.14 164.604 119.744 164.204C119.744 164.204 126.404 142.096 123.448 120.604C130.844 98.18 129.248 84.252 129.248 84.252H114.456Z" fill="#263238"/>
<path d="M118.892 84.252C118.892 84.252 126.116 109.344 129.044 121.668C132.124 134.608 141.276 154.172 142.036 162.748C142.836 163.064 145.392 162.712 146.76 162.048C146.76 162.048 145.508 134.7 138.068 122.24C139.748 91.584 131.428 84.24 131.428 84.24L118.892 84.252Z" fill="#263238"/>
<path d="M141.42 161.032C141.492 161.62 141.523 162.212 141.512 162.804C141.508 162.855 141.515 162.907 141.532 162.955C141.548 163.003 141.575 163.048 141.61 163.085C141.645 163.123 141.687 163.153 141.735 163.173C141.782 163.194 141.832 163.204 141.884 163.204C143.652 163.204 146.096 162.452 146.868 162.188C146.939 162.165 147.002 162.119 147.047 162.058C147.091 161.997 147.115 161.924 147.116 161.848V160.172C147.115 160.118 147.103 160.066 147.08 160.017C147.058 159.968 147.024 159.925 146.983 159.891C146.942 159.856 146.894 159.831 146.843 159.817C146.791 159.802 146.737 159.799 146.684 159.808L141.708 160.644C141.62 160.662 141.542 160.711 141.489 160.783C141.436 160.854 141.411 160.943 141.42 161.032Z" fill="#2196F3"/>
<path d="M114.996 162.344C114.996 162.804 114.956 163.624 114.912 164.228C114.911 164.325 114.945 164.418 115.007 164.492C115.07 164.565 115.157 164.614 115.252 164.628C116.817 164.757 118.39 164.739 119.952 164.576C120.027 164.569 120.098 164.539 120.153 164.488C120.209 164.437 120.246 164.37 120.26 164.296L120.58 162.644C120.587 162.59 120.584 162.536 120.569 162.483C120.554 162.431 120.529 162.382 120.495 162.34C120.461 162.298 120.419 162.263 120.371 162.237C120.323 162.212 120.27 162.197 120.216 162.192L115.36 162C115.313 161.997 115.266 162.004 115.222 162.02C115.178 162.036 115.138 162.061 115.104 162.093C115.07 162.126 115.043 162.165 115.024 162.208C115.006 162.251 114.996 162.297 114.996 162.344Z" fill="#2196F3"/>
<path d="M113.496 64.2721C113.402 66.8603 113.439 69.4517 113.608 72.0361C113.74 75.4081 113.972 78.7241 114.456 84.2521H131.428C131.088 79.4721 131.644 74.0241 134.692 63.2681C134.872 62.7056 134.924 62.1098 134.844 61.5246C134.764 60.9394 134.554 60.3795 134.23 59.8859C133.905 59.3923 133.474 58.9776 132.969 58.672C132.463 58.3665 131.896 58.1779 131.308 58.1201C130.636 58.0521 129.92 57.9961 129.188 57.9601C126.623 57.7779 124.049 57.7779 121.484 57.9601C120.644 58.0361 119.776 58.1441 118.948 58.2601C117.484 58.4775 116.141 59.1953 115.147 60.2914C114.153 61.3875 113.57 62.7942 113.496 64.2721Z" fill="#263238"/>
<path d="M131.345 82.1521C127.949 83.0201 122.781 83.2681 114.297 82.3641C114.501 86.8641 112.521 117.124 112.521 117.124C112.521 117.124 129.721 120.904 139.445 115.772C140.073 92.9041 131.345 82.1521 131.345 82.1521Z" fill="#2196F3"/>
<path opacity="0.2" d="M124.852 100.4C124.852 100.4 129.52 96.052 131.824 93.084C131.64 96.196 128.86 98.988 124.852 100.4Z" fill="black"/>
<path d="M99.1 64.2481L100.228 64.8201C100.44 64.9253 100.623 65.0797 100.762 65.2705C100.901 65.4612 100.992 65.6827 101.028 65.9161L101.36 68.1161C101.429 68.551 101.392 68.9961 101.253 69.4138C101.114 69.8316 100.876 70.2096 100.56 70.5161L100.16 70.9161C98.224 70.0921 96.736 67.7761 96.736 67.7761L96.2401 67.1641C96.1337 67.0413 96.0529 66.8985 96.0023 66.7441C95.9517 66.5897 95.9323 66.4268 95.9453 66.2648C95.9584 66.1028 96.0035 65.9451 96.0782 65.8008C96.1528 65.6564 96.2554 65.5284 96.38 65.4241L97.58 64.4241C97.7895 64.2514 98.0444 64.1429 98.3141 64.1116C98.5837 64.0804 98.8567 64.1278 99.1 64.2481Z" fill="#FF8B7B"/>
<path d="M119.36 64.648C119.236 64.992 119.144 65.2321 119.036 65.5081C118.928 65.7841 118.812 66.0321 118.7 66.3081C118.476 66.8281 118.228 67.3281 117.976 67.8281C117.467 68.8285 116.903 69.8006 116.288 70.7401C115.984 71.2121 115.66 71.6761 115.332 72.1361C115.004 72.5961 114.652 73.0441 114.28 73.4801C113.55 74.3736 112.759 75.2156 111.912 76.0001L111.8 76.1081C111.699 76.2046 111.588 76.2903 111.468 76.3641C110.979 76.6684 110.436 76.8774 109.868 76.9801C109.396 77.0668 108.914 77.0857 108.436 77.0361C107.71 76.949 107 76.7521 106.332 76.4521C105.294 75.9733 104.322 75.3615 103.44 74.6321C102.639 73.9772 101.882 73.269 101.176 72.5121C100.479 71.7724 99.8279 70.9895 99.2285 70.1681C99.0209 69.8835 98.9197 69.5352 98.9426 69.1837C98.9656 68.8323 99.1111 68.5 99.3539 68.2448C99.5966 67.9897 99.9213 67.8278 100.271 67.7875C100.621 67.7471 100.974 67.8308 101.268 68.0241L101.336 68.0681C102.08 68.5521 102.868 69.0801 103.636 69.5521C104.404 70.0241 105.18 70.484 105.94 70.872C106.621 71.2393 107.34 71.5304 108.084 71.7401C108.3 71.8075 108.528 71.8293 108.752 71.804C108.804 71.804 108.8 71.7641 108.752 71.7641C108.658 71.767 108.564 71.7917 108.48 71.8361L108.04 72.2041C108.624 71.5 109.192 70.7801 109.716 70.0081C110.24 69.2361 110.748 68.4441 111.216 67.6081C111.684 66.7721 112.14 65.9481 112.56 65.0921C112.772 64.668 112.96 64.2361 113.172 63.8081L113.456 63.1681L113.712 62.5881L113.78 62.4361C114.095 61.7285 114.672 61.1701 115.389 60.8777C116.106 60.5854 116.908 60.5817 117.628 60.8674C118.348 61.1532 118.93 61.7063 119.251 62.4109C119.572 63.1156 119.609 63.9172 119.352 64.648H119.36Z" fill="#FF8B7B"/>
<path d="M119.416 58.196C116.644 58.556 113.948 60.276 111.56 65.772C112.536 67.868 117.288 69.96 117.288 69.96C117.288 69.96 122.768 63.2 119.416 58.196Z" fill="#263238"/>
</svg>
