<svg width="40" height="40" viewBox="0 0 40 40" fill="none" xmlns="http://www.w3.org/2000/svg">
<g clip-path="url(#clip0_9954_5015)">
<path d="M20.3183 33.3299C20.5372 33.3248 20.7549 33.3628 20.9591 33.4418C21.1633 33.5208 21.3499 33.6393 21.5083 33.7904C21.6667 33.9415 21.7938 34.1224 21.8823 34.3226C21.9708 34.5228 22.019 34.7385 22.0241 34.9574C22.0293 35.1763 21.9913 35.394 21.9122 35.5982C21.8332 35.8024 21.7148 35.989 21.5637 36.1474C21.4125 36.3058 21.2317 36.4329 21.0315 36.5214C20.8312 36.6099 20.6155 36.6581 20.3966 36.6632L20 36.6666L19.6033 36.6616C19.3844 36.6564 19.1687 36.6082 18.9685 36.5197C18.7682 36.4312 18.5874 36.3041 18.4363 36.1457C18.2851 35.9873 18.1667 35.8007 18.0877 35.5965C18.0087 35.3924 17.9706 35.1746 17.9758 34.9557C17.9809 34.7369 18.0291 34.5212 18.1176 34.3209C18.2062 34.1207 18.3332 33.9398 18.4916 33.7887C18.65 33.6376 18.8367 33.5191 19.0408 33.4401C19.245 33.3611 19.4628 33.3231 19.6816 33.3283L20 33.3333L20.3183 33.3299ZM26.9383 31.3883C27.3156 31.1577 27.769 31.0865 28.1987 31.1903C28.6285 31.2941 28.9994 31.5643 29.23 31.9416C29.4605 32.3189 29.5317 32.7722 29.4279 33.202C29.3241 33.6318 29.0539 34.0027 28.6766 34.2333C28.4509 34.3709 28.222 34.5032 27.99 34.6299C27.7979 34.735 27.587 34.8012 27.3694 34.8247C27.1517 34.8483 26.9316 34.8288 26.7215 34.7672C26.2972 34.643 25.9396 34.3553 25.7275 33.9674C25.5153 33.5795 25.4659 33.1233 25.5901 32.699C25.7144 32.2747 26.0021 31.9171 26.39 31.7049C26.5758 31.6037 26.7575 31.4982 26.9383 31.3883ZM10.77 31.9416C10.8841 31.7547 11.0339 31.5922 11.2108 31.4633C11.3877 31.3344 11.5883 31.2415 11.8012 31.1902C12.014 31.1388 12.2348 31.1298 12.4511 31.1638C12.6674 31.1978 12.8748 31.2741 13.0616 31.3883C13.2416 31.4994 13.425 31.6049 13.6116 31.7049C13.9995 31.9173 14.2871 32.2751 14.4112 32.6995C14.5353 33.124 14.4857 33.5804 14.2733 33.9683C14.0609 34.3561 13.7031 34.6437 13.2787 34.7678C12.8542 34.8919 12.3978 34.8423 12.01 34.6299C11.778 34.5032 11.549 34.3709 11.3233 34.2333C11.1365 34.1191 10.9739 33.9693 10.845 33.7924C10.7161 33.6155 10.6232 33.4149 10.5719 33.2021C10.5205 32.9892 10.5115 32.7684 10.5455 32.5521C10.5795 32.3358 10.6558 32.1284 10.77 31.9416ZM20 9.99992C22.6521 9.99992 25.1957 11.0535 27.071 12.9289C28.9464 14.8042 30 17.3478 30 19.9999C30 22.6521 28.9464 25.1956 27.071 27.071C25.1957 28.9464 22.6521 29.9999 20 29.9999C17.3478 29.9999 14.8043 28.9464 12.9289 27.071C11.0535 25.1956 9.99996 22.6521 9.99996 19.9999C9.99996 17.3478 11.0535 14.8042 12.9289 12.9289C14.8043 11.0535 17.3478 9.99992 20 9.99992ZM31.705 26.3899C31.9171 26.002 32.2747 25.7143 32.699 25.5901C33.1233 25.4658 33.5796 25.5152 33.9675 25.7274C34.3553 25.9396 34.643 26.2972 34.7673 26.7215C34.8915 27.1458 34.8421 27.602 34.63 27.9899C34.5033 28.2233 34.3711 28.4521 34.2333 28.6766C34.1192 28.8634 33.9693 29.0259 33.7924 29.1548C33.6155 29.2837 33.4149 29.3765 33.2021 29.4279C32.7723 29.5316 32.3189 29.4604 31.9416 29.2299C31.5644 28.9994 31.2941 28.6285 31.1903 28.1987C31.0866 27.7689 31.1578 27.3155 31.3883 26.9383C31.4994 26.7583 31.605 26.5766 31.705 26.3899ZM6.03329 25.7283C6.22533 25.623 6.43623 25.5566 6.65393 25.5329C6.87164 25.5092 7.09189 25.5286 7.30208 25.59C7.51228 25.6515 7.7083 25.7538 7.87895 25.891C8.0496 26.0283 8.19153 26.1978 8.29663 26.3899C8.3978 26.5757 8.50339 26.7591 8.61329 26.9399C8.72989 27.1268 8.8083 27.3349 8.84398 27.5522C8.87967 27.7696 8.87192 27.9918 8.82119 28.2061C8.77045 28.4205 8.67774 28.6226 8.54841 28.8009C8.41908 28.9792 8.2557 29.1301 8.06771 29.2448C7.87972 29.3596 7.67085 29.4359 7.45317 29.4695C7.23549 29.503 7.01332 29.4931 6.7995 29.4402C6.58568 29.3874 6.38446 29.2927 6.20746 29.1616C6.03046 29.0306 5.88119 28.8657 5.76829 28.6766C5.63064 28.4509 5.49838 28.2219 5.37163 27.9899C5.15956 27.6022 5.11013 27.1462 5.23421 26.7221C5.35829 26.298 5.64571 25.9405 6.03329 25.7283ZM20 16.6666C19.1159 16.6666 18.2681 17.0178 17.6429 17.6429C17.0178 18.268 16.6666 19.1159 16.6666 19.9999C16.6666 20.884 17.0178 21.7318 17.6429 22.3569C18.2681 22.9821 19.1159 23.3333 20 23.3333C20.884 23.3333 21.7319 22.9821 22.357 22.3569C22.9821 21.7318 23.3333 20.884 23.3333 19.9999C23.3333 19.1159 22.9821 18.268 22.357 17.6429C21.7319 17.0178 20.884 16.6666 20 16.6666ZM5.04329 17.9749C5.26218 17.9801 5.4779 18.0284 5.67813 18.117C5.87836 18.2056 6.05917 18.3327 6.21023 18.4912C6.3613 18.6497 6.47965 18.8364 6.55853 19.0407C6.63741 19.2449 6.67528 19.4627 6.66996 19.6816L6.66829 20.1599L6.66996 20.3183C6.68035 20.7603 6.51472 21.1883 6.2095 21.5082C5.90428 21.8281 5.48449 22.0137 5.04246 22.0241C4.60043 22.0345 4.17238 21.8688 3.85248 21.5636C3.53257 21.2584 3.34702 20.8386 3.33663 20.3966L3.33496 19.8016L3.33829 19.6016C3.34878 19.1598 3.53428 18.7403 3.85401 18.4352C4.17373 18.1302 4.60152 17.9646 5.04329 17.9749ZM34.9566 17.9749C35.1755 17.9698 35.3933 18.0079 35.5974 18.087C35.8016 18.1661 35.9882 18.2846 36.1465 18.4358C36.3048 18.5871 36.4318 18.768 36.5202 18.9683C36.6086 19.1686 36.6566 19.3844 36.6616 19.6033L36.6666 19.9999L36.6616 20.3966C36.6565 20.6155 36.6083 20.8312 36.5198 21.0314C36.4313 21.2316 36.3042 21.4125 36.1458 21.5636C35.9874 21.7148 35.8008 21.8332 35.5966 21.9122C35.3924 21.9912 35.1747 22.0292 34.9558 22.0241C34.7369 22.0189 34.5212 21.9707 34.321 21.8822C34.1207 21.7937 33.9399 21.6666 33.7888 21.5082C33.6376 21.3498 33.5192 21.1632 33.4402 20.959C33.3612 20.7549 33.3231 20.5371 33.3283 20.3183L33.3333 19.9999L33.33 19.6816C33.3246 19.4627 33.3625 19.2449 33.4414 19.0407C33.5203 18.8364 33.6386 18.6497 33.7897 18.4912C33.9407 18.3327 34.1216 18.2056 34.3218 18.117C34.522 18.0284 34.7377 17.9801 34.9566 17.9749ZM31.94 10.7699C32.1268 10.6557 32.3342 10.5795 32.5505 10.5455C32.7668 10.5115 32.9876 10.5204 33.2004 10.5718C33.4132 10.6232 33.6138 10.716 33.7908 10.8449C33.9677 10.9739 34.1175 11.1364 34.2316 11.3233C34.3705 11.5488 34.5033 11.7777 34.63 12.0099C34.8421 12.3978 34.8915 12.8541 34.7673 13.2784C34.643 13.7027 34.3553 14.0602 33.9675 14.2724C33.5796 14.4846 33.1233 14.534 32.699 14.4097C32.2747 14.2855 31.9171 13.9978 31.705 13.6099C31.6038 13.4241 31.4982 13.2407 31.3883 13.0599C31.1582 12.6828 31.0872 12.2298 31.191 11.8004C31.2948 11.371 31.5647 11.0004 31.9416 10.7699H31.94ZM5.76663 11.3233C5.99714 10.946 6.36809 10.6757 6.79786 10.572C7.22763 10.4682 7.68102 10.5394 8.05829 10.7699C8.43556 11.0004 8.70581 11.3714 8.80958 11.8012C8.91335 12.2309 8.84214 12.6843 8.61163 13.0616C8.50052 13.2416 8.39496 13.4249 8.29496 13.6116C8.08257 13.9995 7.72479 14.2871 7.30033 14.4112C6.87587 14.5353 6.41951 14.4856 6.03163 14.2733C5.64375 14.0609 5.35613 13.7031 5.23204 13.2786C5.10796 12.8542 5.15757 12.3978 5.36996 12.0099C5.49774 11.7766 5.62996 11.5477 5.76663 11.3233ZM25.7283 6.03159C25.9405 5.64401 26.298 5.35658 26.7221 5.2325C27.1462 5.10842 27.6023 5.15785 27.99 5.36992C28.2233 5.4977 28.4522 5.62992 28.6766 5.76659C29.0539 5.9971 29.3241 6.36805 29.4279 6.79782C29.5317 7.22759 29.4605 7.68098 29.23 8.05825C28.9994 8.43552 28.6285 8.70577 28.1987 8.80954C27.769 8.91331 27.3156 8.8421 26.9383 8.61158C26.7575 8.50168 26.5741 8.3961 26.3883 8.29492C26.1963 8.18968 26.0269 8.04765 25.8899 7.87694C25.7528 7.70622 25.6507 7.51017 25.5894 7.29999C25.5281 7.08981 25.5088 6.8696 25.5326 6.65197C25.5565 6.43433 25.623 6.22352 25.7283 6.03159ZM12.01 5.36992C12.3978 5.15775 12.8541 5.10835 13.2784 5.23259C13.7027 5.35683 14.0603 5.64454 14.2725 6.03242C14.4846 6.4203 14.534 6.87658 14.4098 7.30088C14.2855 7.72518 13.9978 8.08275 13.61 8.29492C13.4241 8.3961 13.2408 8.50168 13.06 8.61158C12.6832 8.8287 12.2365 8.88996 11.8152 8.78229C11.3938 8.67462 11.0313 8.40655 10.8049 8.03529C10.5785 7.66403 10.5061 7.21897 10.6033 6.79511C10.7005 6.37125 10.9594 6.00215 11.325 5.76659C11.5505 5.62992 11.7777 5.4977 12.01 5.36992ZM20 3.33325L20.3966 3.33825C20.8387 3.34864 21.2584 3.5342 21.5637 3.8541C21.8689 4.17401 22.0345 4.60206 22.0241 5.04409C22.0137 5.48611 21.8282 5.90591 21.5083 6.21112C21.1884 6.51634 20.7603 6.68197 20.3183 6.67158L20 6.66659L19.6816 6.66992C19.2396 6.68031 18.8115 6.51467 18.4916 6.20946C18.1717 5.90424 17.9862 5.48445 17.9758 5.04242C17.9654 4.60039 18.131 4.17234 18.4363 3.85244C18.7415 3.53253 19.1613 3.34697 19.6033 3.33659L20 3.33325Z" fill="white"/>
</g>
<defs>
<clipPath id="clip0_9954_5015">
<rect width="40" height="40" fill="white"/>
</clipPath>
</defs>
</svg>
