<svg width="40" height="40" viewBox="0 0 40 40" fill="none" xmlns="http://www.w3.org/2000/svg">
<g clip-path="url(#clip0_9954_6262)">
<path d="M20.3193 33.3299C20.5381 33.3248 20.7559 33.3628 20.9601 33.4418C21.1642 33.5208 21.3509 33.6393 21.5093 33.7904C21.6677 33.9415 21.7947 34.1224 21.8832 34.3226C21.9718 34.5228 22.02 34.7385 22.0251 34.9574C22.0302 35.1763 21.9922 35.394 21.9132 35.5982C21.8342 35.8024 21.7158 35.989 21.5646 36.1474C21.4135 36.3058 21.2327 36.4329 21.0324 36.5214C20.8322 36.6099 20.6165 36.6581 20.3976 36.6632L20.0009 36.6666L19.6043 36.6616C19.3854 36.6564 19.1697 36.6082 18.9694 36.5197C18.7692 36.4312 18.5884 36.3041 18.4372 36.1457C18.2861 35.9873 18.1677 35.8007 18.0886 35.5965C18.0096 35.3924 17.9716 35.1746 17.9768 34.9557C17.9819 34.7369 18.0301 34.5212 18.1186 34.3209C18.2071 34.1207 18.3342 33.9398 18.4926 33.7887C18.651 33.6376 18.8376 33.5191 19.0418 33.4401C19.246 33.3611 19.4637 33.3231 19.6826 33.3283L20.0009 33.3333L20.3193 33.3299ZM26.9393 31.3883C27.3165 31.1577 27.7699 31.0865 28.1997 31.1903C28.6295 31.2941 29.0004 31.5643 29.2309 31.9416C29.4615 32.3189 29.5327 32.7722 29.4289 33.202C29.3251 33.6318 29.0549 34.0027 28.6776 34.2333C28.4519 34.3709 28.2229 34.5032 27.9909 34.6299C27.7989 34.735 27.588 34.8012 27.3704 34.8247C27.1527 34.8483 26.9326 34.8288 26.7225 34.7672C26.2982 34.643 25.9406 34.3553 25.7284 33.9674C25.5163 33.5795 25.4669 33.1233 25.5911 32.699C25.7153 32.2747 26.0031 31.9171 26.3909 31.7049C26.5768 31.6037 26.7585 31.4982 26.9393 31.3883ZM10.7709 31.9416C10.885 31.7547 11.0348 31.5922 11.2118 31.4633C11.3887 31.3344 11.5893 31.2415 11.8021 31.1902C12.015 31.1388 12.2358 31.1298 12.4521 31.1638C12.6684 31.1978 12.8758 31.2741 13.0626 31.3883C13.2426 31.4994 13.4259 31.6049 13.6126 31.7049C14.0005 31.9173 14.2881 32.2751 14.4122 32.6995C14.5363 33.124 14.4867 33.5804 14.2743 33.9683C14.0619 34.3561 13.7041 34.6437 13.2796 34.7678C12.8552 34.8919 12.3988 34.8423 12.0109 34.6299C11.7789 34.5032 11.55 34.3709 11.3243 34.2333C11.1374 34.1191 10.9749 33.9693 10.846 33.7924C10.717 33.6155 10.6242 33.4149 10.5728 33.2021C10.5215 32.9892 10.5125 32.7684 10.5465 32.5521C10.5805 32.3358 10.6567 32.1284 10.7709 31.9416ZM20.0009 9.99992C22.6531 9.99992 25.1966 11.0535 27.072 12.9289C28.9474 14.8042 30.0009 17.3478 30.0009 19.9999C30.0009 22.6521 28.9474 25.1956 27.072 27.071C25.1966 28.9464 22.6531 29.9999 20.0009 29.9999C17.3488 29.9999 14.8052 28.9464 12.9299 27.071C11.0545 25.1956 10.0009 22.6521 10.0009 19.9999C10.0009 17.3478 11.0545 14.8042 12.9299 12.9289C14.8052 11.0535 17.3488 9.99992 20.0009 9.99992ZM31.7059 26.3899C31.9181 26.002 32.2757 25.7143 32.7 25.5901C33.1243 25.4658 33.5806 25.5152 33.9684 25.7274C34.3563 25.9396 34.644 26.2972 34.7683 26.7215C34.8925 27.1458 34.8431 27.602 34.6309 27.9899C34.5043 28.2233 34.372 28.4521 34.2343 28.6766C34.1201 28.8634 33.9703 29.0259 33.7934 29.1548C33.6164 29.2837 33.4158 29.3765 33.203 29.4279C32.7733 29.5316 32.3199 29.4604 31.9426 29.2299C31.5653 28.9994 31.2951 28.6285 31.1913 28.1987C31.0875 27.7689 31.1588 27.3155 31.3893 26.9383C31.5004 26.7583 31.6059 26.5766 31.7059 26.3899ZM6.03427 25.7283C6.22631 25.623 6.4372 25.5566 6.65491 25.5329C6.87262 25.5092 7.09286 25.5286 7.30306 25.59C7.51325 25.6515 7.70928 25.7538 7.87993 25.891C8.05058 26.0283 8.19251 26.1978 8.2976 26.3899C8.39878 26.5757 8.50437 26.7591 8.61427 26.9399C8.73087 27.1268 8.80928 27.3349 8.84496 27.5522C8.88064 27.7696 8.87289 27.9918 8.82216 28.2061C8.77143 28.4205 8.67872 28.6226 8.54939 28.8009C8.42006 28.9792 8.25668 29.1301 8.06869 29.2448C7.8807 29.3596 7.67182 29.4359 7.45414 29.4695C7.23646 29.503 7.01429 29.4931 6.80048 29.4402C6.58666 29.3874 6.38543 29.2927 6.20843 29.1616C6.03144 29.0306 5.88217 28.8657 5.76927 28.6766C5.63162 28.4509 5.49936 28.2219 5.3726 27.9899C5.16054 27.6022 5.11111 27.1462 5.23519 26.7221C5.35926 26.298 5.64669 25.9405 6.03427 25.7283ZM20.0009 16.6666C19.1169 16.6666 18.269 17.0178 17.6439 17.6429C17.0188 18.268 16.6676 19.1159 16.6676 19.9999C16.6676 20.884 17.0188 21.7318 17.6439 22.3569C18.269 22.9821 19.1169 23.3333 20.0009 23.3333C20.885 23.3333 21.7328 22.9821 22.358 22.3569C22.9831 21.7318 23.3343 20.884 23.3343 19.9999C23.3343 19.1159 22.9831 18.268 22.358 17.6429C21.7328 17.0178 20.885 16.6666 20.0009 16.6666ZM5.04427 17.9749C5.26316 17.9801 5.47888 18.0284 5.67911 18.117C5.87934 18.2056 6.06015 18.3327 6.21121 18.4912C6.36227 18.6497 6.48063 18.8364 6.55951 19.0407C6.63839 19.2449 6.67625 19.4627 6.67094 19.6816L6.66927 20.1599L6.67094 20.3183C6.68132 20.7603 6.51569 21.1883 6.21048 21.5082C5.90526 21.8281 5.48547 22.0137 5.04344 22.0241C4.60141 22.0345 4.17336 21.8688 3.85345 21.5636C3.53355 21.2584 3.34799 20.8386 3.3376 20.3966L3.33594 19.8016L3.33927 19.6016C3.34976 19.1598 3.53526 18.7403 3.85498 18.4352C4.17471 18.1302 4.60249 17.9646 5.04427 17.9749ZM34.9576 17.9749C35.1765 17.9698 35.3942 18.0079 35.5984 18.087C35.8026 18.1661 35.9891 18.2846 36.1475 18.4358C36.3058 18.5871 36.4328 18.768 36.5212 18.9683C36.6096 19.1686 36.6576 19.3844 36.6626 19.6033L36.6676 19.9999L36.6626 20.3966C36.6575 20.6155 36.6093 20.8312 36.5207 21.0314C36.4322 21.2316 36.3052 21.4125 36.1468 21.5636C35.9883 21.7148 35.8017 21.8332 35.5976 21.9122C35.3934 21.9912 35.1756 22.0292 34.9568 22.0241C34.7379 22.0189 34.5222 21.9707 34.3219 21.8822C34.1217 21.7937 33.9409 21.6666 33.7897 21.5082C33.6386 21.3498 33.5202 21.1632 33.4411 20.959C33.3621 20.7549 33.3241 20.5371 33.3293 20.3183L33.3343 19.9999L33.3309 19.6816C33.3256 19.4627 33.3635 19.2449 33.4424 19.0407C33.5212 18.8364 33.6396 18.6497 33.7907 18.4912C33.9417 18.3327 34.1225 18.2056 34.3228 18.117C34.523 18.0284 34.7387 17.9801 34.9576 17.9749ZM31.9409 10.7699C32.1277 10.6557 32.3352 10.5795 32.5515 10.5455C32.7677 10.5115 32.9886 10.5204 33.2014 10.5718C33.4142 10.6232 33.6148 10.716 33.7918 10.8449C33.9687 10.9739 34.1185 11.1364 34.2326 11.3233C34.3715 11.5488 34.5043 11.7777 34.6309 12.0099C34.8431 12.3978 34.8925 12.8541 34.7683 13.2784C34.644 13.7027 34.3563 14.0602 33.9684 14.2724C33.5806 14.4846 33.1243 14.534 32.7 14.4097C32.2757 14.2855 31.9181 13.9978 31.7059 13.6099C31.6048 13.4241 31.4992 13.2407 31.3893 13.0599C31.1592 12.6828 31.0882 12.2298 31.192 11.8004C31.2957 11.371 31.5657 11.0004 31.9426 10.7699H31.9409ZM5.7676 11.3233C5.99812 10.946 6.36907 10.6757 6.79884 10.572C7.22861 10.4682 7.682 10.5394 8.05927 10.7699C8.43654 11.0004 8.70679 11.3714 8.81056 11.8012C8.91433 12.2309 8.84312 12.6843 8.6126 13.0616C8.50149 13.2416 8.39594 13.4249 8.29594 13.6116C8.08354 13.9995 7.72576 14.2871 7.30131 14.4112C6.87685 14.5353 6.42048 14.4856 6.0326 14.2733C5.64472 14.0609 5.35711 13.7031 5.23302 13.2786C5.10893 12.8542 5.15854 12.3978 5.37094 12.0099C5.49871 11.7766 5.63094 11.5477 5.7676 11.3233ZM25.7293 6.03159C25.9415 5.64401 26.299 5.35658 26.7231 5.2325C27.1472 5.10842 27.6033 5.15785 27.9909 5.36992C28.2243 5.4977 28.4532 5.62992 28.6776 5.76659C29.0549 5.9971 29.3251 6.36805 29.4289 6.79782C29.5327 7.22759 29.4615 7.68098 29.2309 8.05825C29.0004 8.43552 28.6295 8.70577 28.1997 8.80954C27.7699 8.91331 27.3165 8.8421 26.9393 8.61158C26.7585 8.50168 26.5751 8.3961 26.3893 8.29492C26.1973 8.18968 26.0279 8.04765 25.8908 7.87694C25.7537 7.70622 25.6516 7.51017 25.5904 7.29999C25.5291 7.08981 25.5098 6.8696 25.5336 6.65197C25.5575 6.43433 25.6239 6.22352 25.7293 6.03159ZM12.0109 5.36992C12.3988 5.15775 12.8551 5.10835 13.2794 5.23259C13.7037 5.35683 14.0613 5.64454 14.2734 6.03242C14.4856 6.4203 14.535 6.87658 14.4108 7.30088C14.2865 7.72518 13.9988 8.08275 13.6109 8.29492C13.4251 8.3961 13.2417 8.50168 13.0609 8.61158C12.6842 8.8287 12.2374 8.88996 11.8161 8.78229C11.3948 8.67462 11.0323 8.40655 10.8059 8.03529C10.5794 7.66403 10.5071 7.21897 10.6043 6.79511C10.7014 6.37125 10.9604 6.00215 11.3259 5.76659C11.5515 5.62992 11.7787 5.4977 12.0109 5.36992ZM20.0009 3.33325L20.3976 3.33825C20.8396 3.34864 21.2594 3.5342 21.5646 3.8541C21.8699 4.17401 22.0355 4.60206 22.0251 5.04409C22.0147 5.48611 21.8292 5.90591 21.5093 6.21112C21.1893 6.51634 20.7613 6.68197 20.3193 6.67158L20.0009 6.66659L19.6826 6.66992C19.2406 6.68031 18.8125 6.51467 18.4926 6.20946C18.1727 5.90424 17.9872 5.48445 17.9768 5.04242C17.9664 4.60039 18.132 4.17234 18.4372 3.85244C18.7424 3.53253 19.1622 3.34697 19.6043 3.33659L20.0009 3.33325Z" fill="#2196F3"/>
</g>
<defs>
<clipPath id="clip0_9954_6262">
<rect width="40" height="40" fill="white"/>
</clipPath>
</defs>
</svg>
