<svg width="25" height="24" viewBox="0 0 25 24" fill="none" xmlns="http://www.w3.org/2000/svg">
<path d="M11.0095 3.66489C11.1971 3.45539 11.4267 3.2878 11.6835 3.17306C11.9402 3.05833 12.2183 2.99902 12.4995 2.99902C12.7807 2.99902 13.0587 3.05833 13.3155 3.17306C13.5722 3.2878 13.8019 3.45539 13.9895 3.66489L14.6895 4.44689C14.8895 4.67039 15.1373 4.84602 15.4144 4.96079C15.6916 5.07556 15.991 5.12652 16.2905 5.10989L17.3405 5.05189C17.6213 5.03641 17.9023 5.08034 18.165 5.18082C18.4277 5.28129 18.6663 5.43605 18.8651 5.63498C19.064 5.83392 19.2186 6.07256 19.3189 6.33532C19.4193 6.59808 19.4631 6.87906 19.4475 7.15989L19.3895 8.20889C19.373 8.50823 19.424 8.80743 19.5388 9.08438C19.6536 9.36133 19.8291 9.60894 20.0525 9.80889L20.8345 10.5089C21.0441 10.6965 21.2119 10.9262 21.3267 11.183C21.4415 11.4399 21.5009 11.7181 21.5009 11.9994C21.5009 12.2807 21.4415 12.5589 21.3267 12.8157C21.2119 13.0726 21.0441 13.3023 20.8345 13.4899L20.0525 14.1899C19.829 14.39 19.6533 14.6377 19.5386 14.9149C19.4238 15.192 19.3729 15.4914 19.3895 15.7909L19.4475 16.8409C19.463 17.1217 19.419 17.4027 19.3186 17.6654C19.2181 17.9281 19.0633 18.1667 18.8644 18.3655C18.6655 18.5644 18.4268 18.719 18.164 18.8194C17.9013 18.9197 17.6203 18.9635 17.3395 18.9479L16.2905 18.8899C15.9911 18.8734 15.6919 18.9245 15.415 19.0392C15.138 19.154 14.8904 19.3295 14.6905 19.5529L13.9905 20.3349C13.8029 20.5446 13.5732 20.7123 13.3163 20.8271C13.0595 20.942 12.7813 21.0013 12.5 21.0013C12.2186 21.0013 11.9405 20.942 11.6836 20.8271C11.4268 20.7123 11.1971 20.5446 11.0095 20.3349L10.3095 19.5529C10.1094 19.3294 9.86164 19.1538 9.58451 19.039C9.30737 18.9242 9.00797 18.8733 8.70848 18.8899L7.65848 18.9479C7.37763 18.9634 7.09668 18.9194 6.83397 18.819C6.57125 18.7185 6.33268 18.5637 6.13384 18.3648C5.935 18.1659 5.78036 17.9272 5.68001 17.6645C5.57966 17.4017 5.53586 17.1207 5.55148 16.8399L5.60948 15.7909C5.62595 15.4916 5.57491 15.1924 5.46015 14.9154C5.34539 14.6385 5.16984 14.3908 4.94648 14.1909L4.16448 13.4909C3.95481 13.3033 3.78708 13.0736 3.67224 12.8167C3.5574 12.5599 3.49805 12.2817 3.49805 12.0004C3.49805 11.7191 3.5574 11.4409 3.67224 11.184C3.78708 10.9272 3.95481 10.6975 4.16448 10.5099L4.94648 9.8099C5.16997 9.60983 5.34561 9.36206 5.46037 9.08493C5.57514 8.80779 5.6261 8.50839 5.60948 8.20889L5.55148 7.15889C5.53614 6.87813 5.58018 6.59729 5.68072 6.3347C5.78126 6.0721 5.93604 5.83366 6.13496 5.63493C6.33388 5.4362 6.57247 5.28164 6.83516 5.18135C7.09784 5.08106 7.37873 5.03729 7.65948 5.05289L8.70848 5.11089C9.00781 5.12736 9.30701 5.07633 9.58396 4.96157C9.86091 4.84681 10.1085 4.67125 10.3085 4.44789L11.0095 3.66489Z" stroke="#161313" stroke-width="2"/>
<path d="M10 9.5H10.01V9.51H10V9.5ZM15 14.5H15.01V14.51H15V14.5Z" stroke="#161313" stroke-width="3" stroke-linejoin="round"/>
<path d="M15.5 9L9.5 15" stroke="#161313" stroke-width="2" stroke-linecap="round" stroke-linejoin="round"/>
</svg>
