<svg width="25" height="24" viewBox="0 0 25 24" fill="none" xmlns="http://www.w3.org/2000/svg">
<path d="M11.0105 3.66489C11.198 3.45539 11.4277 3.2878 11.6844 3.17306C11.9412 3.05833 12.2192 2.99902 12.5005 2.99902C12.7817 2.99902 13.0597 3.05833 13.3165 3.17306C13.5732 3.2878 13.8029 3.45539 13.9905 3.66489L14.6905 4.44689C14.8905 4.67039 15.1383 4.84602 15.4154 4.96079C15.6926 5.07556 15.992 5.12652 16.2915 5.10989L17.3415 5.05189C17.6223 5.03641 17.9032 5.08034 18.166 5.18082C18.4287 5.28129 18.6672 5.43605 18.8661 5.63498C19.0649 5.83392 19.2196 6.07256 19.3199 6.33532C19.4203 6.59808 19.4641 6.87906 19.4485 7.15989L19.3905 8.20889C19.374 8.50823 19.425 8.80743 19.5398 9.08438C19.6545 9.36133 19.8301 9.60894 20.0535 9.80889L20.8355 10.5089C21.0451 10.6965 21.2129 10.9262 21.3277 11.183C21.4425 11.4399 21.5019 11.7181 21.5019 11.9994C21.5019 12.2807 21.4425 12.5589 21.3277 12.8157C21.2129 13.0726 21.0451 13.3023 20.8355 13.4899L20.0535 14.1899C19.83 14.39 19.6543 14.6377 19.5396 14.9149C19.4248 15.192 19.3738 15.4914 19.3905 15.7909L19.4485 16.8409C19.4639 17.1217 19.42 17.4027 19.3195 17.6654C19.2191 17.9281 19.0643 18.1667 18.8654 18.3655C18.6664 18.5644 18.4278 18.719 18.165 18.8194C17.9023 18.9197 17.6213 18.9635 17.3405 18.9479L16.2915 18.8899C15.9921 18.8734 15.6929 18.9245 15.416 19.0392C15.139 19.154 14.8914 19.3295 14.6915 19.5529L13.9915 20.3349C13.8039 20.5446 13.5741 20.7123 13.3173 20.8271C13.0605 20.942 12.7823 21.0013 12.501 21.0013C12.2196 21.0013 11.9414 20.942 11.6846 20.8271C11.4278 20.7123 11.198 20.5446 11.0105 20.3349L10.3105 19.5529C10.1104 19.3294 9.86262 19.1538 9.58549 19.039C9.30835 18.9242 9.00895 18.8733 8.70945 18.8899L7.65945 18.9479C7.37861 18.9634 7.09766 18.9194 6.83494 18.819C6.57223 18.7185 6.33366 18.5637 6.13482 18.3648C5.93598 18.1659 5.78133 17.9272 5.68098 17.6645C5.58064 17.4017 5.53684 17.1207 5.55245 16.8399L5.61045 15.7909C5.62692 15.4916 5.57589 15.1924 5.46113 14.9154C5.34637 14.6385 5.17081 14.3908 4.94745 14.1909L4.16545 13.4909C3.95578 13.3033 3.78805 13.0736 3.67322 12.8167C3.55838 12.5599 3.49902 12.2817 3.49902 12.0004C3.49902 11.7191 3.55838 11.4409 3.67322 11.184C3.78805 10.9272 3.95578 10.6975 4.16545 10.5099L4.94745 9.8099C5.17095 9.60983 5.34658 9.36206 5.46135 9.08493C5.57611 8.80779 5.62707 8.50839 5.61045 8.20889L5.55245 7.15889C5.53712 6.87813 5.58116 6.59729 5.6817 6.3347C5.78223 6.0721 5.93701 5.83366 6.13593 5.63493C6.33485 5.4362 6.57344 5.28164 6.83613 5.18135C7.09882 5.08106 7.3797 5.03729 7.66045 5.05289L8.70945 5.11089C9.00879 5.12736 9.30799 5.07633 9.58494 4.96157C9.86189 4.84681 10.1095 4.67125 10.3095 4.44789L11.0105 3.66489Z" stroke="#2196F3" stroke-width="2"/>
<path d="M10 9.5H10.01V9.51H10V9.5ZM15 14.5H15.01V14.51H15V14.5Z" stroke="#2196F3" stroke-width="3" stroke-linejoin="round"/>
<path d="M15.5 9L9.5 15" stroke="#2196F3" stroke-width="2" stroke-linecap="round" stroke-linejoin="round"/>
</svg>
