<svg width="21" height="18" viewBox="0 0 21 18" fill="none" xmlns="http://www.w3.org/2000/svg">
<path d="M12.2595 7.21719e-05C7.16954 -0.139928 2.99954 3.95007 2.99954 9.00007H1.20954C0.759542 9.00007 0.539542 9.54007 0.859542 9.85007L3.64954 12.6501C3.84954 12.8501 4.15954 12.8501 4.35954 12.6501L7.14954 9.85007C7.21864 9.77958 7.26533 9.6902 7.28373 9.59322C7.30212 9.49623 7.29139 9.39597 7.25289 9.30507C7.21439 9.21417 7.14985 9.1367 7.06739 9.08242C6.98493 9.02815 6.88826 8.99949 6.78954 9.00007H4.99954C4.99954 5.10007 8.17954 1.95007 12.0995 2.00007C15.8195 2.05007 18.9495 5.18007 18.9995 8.90007C19.0495 12.8101 15.8995 16.0001 11.9995 16.0001C10.3895 16.0001 8.89954 15.4501 7.71954 14.5201C7.52801 14.3692 7.28769 14.294 7.04431 14.3087C6.80093 14.3235 6.57146 14.4272 6.39954 14.6001C5.97954 15.0201 6.00954 15.7301 6.47954 16.0901C8.05067 17.3325 9.99651 18.0058 11.9995 18.0001C17.0495 18.0001 21.1395 13.8301 20.9995 8.74007C20.8695 4.05007 16.9495 0.130072 12.2595 7.21719e-05ZM11.7495 5.00007C11.3395 5.00007 10.9995 5.34007 10.9995 5.75007V9.43007C10.9995 9.78007 11.1895 10.1101 11.4895 10.2901L14.6095 12.1401C14.9695 12.3501 15.4295 12.2301 15.6395 11.8801C15.8495 11.5201 15.7295 11.0601 15.3795 10.8501L12.4995 9.14007V5.74007C12.4995 5.34007 12.1595 5.00007 11.7495 5.00007Z" fill="white"/>
</svg>
