<svg width="25" height="24" viewBox="0 0 25 24" fill="none" xmlns="http://www.w3.org/2000/svg">
<path d="M8.75 9C8.75 8.80109 8.82902 8.61032 8.96967 8.46967C9.11032 8.32902 9.30109 8.25 9.5 8.25H15.5C15.6989 8.25 15.8897 8.32902 16.0303 8.46967C16.171 8.61032 16.25 8.80109 16.25 9C16.25 9.19891 16.171 9.38968 16.0303 9.53033C15.8897 9.67098 15.6989 9.75 15.5 9.75H9.5C9.30109 9.75 9.11032 9.67098 8.96967 9.53033C8.82902 9.38968 8.75 9.19891 8.75 9ZM9.5 12.75H15.5C15.6989 12.75 15.8897 12.671 16.0303 12.5303C16.171 12.3897 16.25 12.1989 16.25 12C16.25 11.8011 16.171 11.6103 16.0303 11.4697C15.8897 11.329 15.6989 11.25 15.5 11.25H9.5C9.30109 11.25 9.11032 11.329 8.96967 11.4697C8.82902 11.6103 8.75 11.8011 8.75 12C8.75 12.1989 8.82902 12.3897 8.96967 12.5303C9.11032 12.671 9.30109 12.75 9.5 12.75ZM12.5 14.25H9.5C9.30109 14.25 9.11032 14.329 8.96967 14.4697C8.82902 14.6103 8.75 14.8011 8.75 15C8.75 15.1989 8.82902 15.3897 8.96967 15.5303C9.11032 15.671 9.30109 15.75 9.5 15.75H12.5C12.6989 15.75 12.8897 15.671 13.0303 15.5303C13.171 15.3897 13.25 15.1989 13.25 15C13.25 14.8011 13.171 14.6103 13.0303 14.4697C12.8897 14.329 12.6989 14.25 12.5 14.25ZM21.5 4.5V14.6897C21.5006 14.8867 21.4621 15.082 21.3866 15.264C21.3111 15.446 21.2002 15.6112 21.0603 15.75L16.25 20.5603C16.1112 20.7002 15.946 20.8111 15.764 20.8866C15.582 20.9621 15.3867 21.0006 15.1897 21H5C4.60218 21 4.22064 20.842 3.93934 20.5607C3.65804 20.2794 3.5 19.8978 3.5 19.5V4.5C3.5 4.10218 3.65804 3.72064 3.93934 3.43934C4.22064 3.15804 4.60218 3 5 3H20C20.3978 3 20.7794 3.15804 21.0607 3.43934C21.342 3.72064 21.5 4.10218 21.5 4.5ZM5 19.5H14.75V15C14.75 14.8011 14.829 14.6103 14.9697 14.4697C15.1103 14.329 15.3011 14.25 15.5 14.25H20V4.5H5V19.5ZM16.25 15.75V18.4406L18.9397 15.75H16.25Z" fill="#161313"/>
</svg>
