<svg width="25" height="24" viewBox="0 0 25 24" fill="none" xmlns="http://www.w3.org/2000/svg">
<path d="M10.5 15.9999H14.5C15.05 15.9999 15.5 15.5499 15.5 14.9999V9.99991H17.09C17.98 9.99991 18.43 8.91991 17.8 8.28991L13.21 3.69991C13.1175 3.60721 13.0076 3.53366 12.8866 3.48348C12.7657 3.4333 12.636 3.40747 12.505 3.40747C12.374 3.40747 12.2443 3.4333 12.1234 3.48348C12.0024 3.53366 11.8925 3.60721 11.8 3.69991L7.21 8.28991C6.58 8.91991 7.02 9.99991 7.91 9.99991H9.5V14.9999C9.5 15.5499 9.95 15.9999 10.5 15.9999ZM6.5 17.9999H18.5C19.05 17.9999 19.5 18.4499 19.5 18.9999C19.5 19.5499 19.05 19.9999 18.5 19.9999H6.5C5.95 19.9999 5.5 19.5499 5.5 18.9999C5.5 18.4499 5.95 17.9999 6.5 17.9999Z" fill="#2196F3"/>
</svg>
