<svg width="22" height="18" viewBox="0 0 22 18" fill="none" xmlns="http://www.w3.org/2000/svg">
<path d="M21.4775 12.8181L19.37 4.38625C19.2888 4.06159 19.1015 3.77338 18.8376 3.56749C18.5738 3.3616 18.2487 3.24984 17.9141 3.25H11.75V1.75C11.75 1.35218 11.592 0.970644 11.3107 0.68934C11.0294 0.408035 10.6478 0.25 10.25 0.25H6.5C6.10218 0.25 5.72064 0.408035 5.43934 0.68934C5.15804 0.970644 5 1.35218 5 1.75V3.25H4.08594C3.75128 3.24984 3.42619 3.3616 3.16237 3.56749C2.89855 3.77338 2.71115 4.06159 2.63 4.38625L0.5225 12.8181C0.507594 12.8776 0.500037 12.9387 0.5 13V16C0.5 16.3978 0.658035 16.7794 0.93934 17.0607C1.22064 17.342 1.60218 17.5 2 17.5H20C20.3978 17.5 20.7794 17.342 21.0607 17.0607C21.342 16.7794 21.5 16.3978 21.5 16V13C21.5 12.9387 21.4924 12.8776 21.4775 12.8181ZM14.75 6.25H16.25C16.4489 6.25 16.6397 6.32902 16.7803 6.46967C16.921 6.61032 17 6.80109 17 7C17 7.19891 16.921 7.38968 16.7803 7.53033C16.6397 7.67098 16.4489 7.75 16.25 7.75H14.75C14.5511 7.75 14.3603 7.67098 14.2197 7.53033C14.079 7.38968 14 7.19891 14 7C14 6.80109 14.079 6.61032 14.2197 6.46967C14.3603 6.32902 14.5511 6.25 14.75 6.25ZM14.75 9.25H16.25C16.4489 9.25 16.6397 9.32902 16.7803 9.46967C16.921 9.61032 17 9.80109 17 10C17 10.1989 16.921 10.3897 16.7803 10.5303C16.6397 10.671 16.4489 10.75 16.25 10.75H14.75C14.5511 10.75 14.3603 10.671 14.2197 10.5303C14.079 10.3897 14 10.1989 14 10C14 9.80109 14.079 9.61032 14.2197 9.46967C14.3603 9.32902 14.5511 9.25 14.75 9.25ZM11.75 6.25C11.9489 6.25 12.1397 6.32902 12.2803 6.46967C12.421 6.61032 12.5 6.80109 12.5 7C12.5 7.19891 12.421 7.38968 12.2803 7.53033C12.1397 7.67098 11.9489 7.75 11.75 7.75H10.25C10.0511 7.75 9.86032 7.67098 9.71967 7.53033C9.57902 7.38968 9.5 7.19891 9.5 7C9.5 6.80109 9.57902 6.61032 9.71967 6.46967C9.86032 6.32902 10.0511 6.25 10.25 6.25H11.75ZM12.5 10C12.5 10.1989 12.421 10.3897 12.2803 10.5303C12.1397 10.671 11.9489 10.75 11.75 10.75H10.25C10.0511 10.75 9.86032 10.671 9.71967 10.5303C9.57902 10.3897 9.5 10.1989 9.5 10C9.5 9.80109 9.57902 9.61032 9.71967 9.46967C9.86032 9.32902 10.0511 9.25 10.25 9.25H11.75C11.9489 9.25 12.1397 9.32902 12.2803 9.46967C12.421 9.61032 12.5 9.80109 12.5 10ZM6.5 1.75H10.25V3.25H6.5V1.75ZM5.75 6.25H7.25C7.44891 6.25 7.63968 6.32902 7.78033 6.46967C7.92098 6.61032 8 6.80109 8 7C8 7.19891 7.92098 7.38968 7.78033 7.53033C7.63968 7.67098 7.44891 7.75 7.25 7.75H5.75C5.55109 7.75 5.36032 7.67098 5.21967 7.53033C5.07902 7.38968 5 7.19891 5 7C5 6.80109 5.07902 6.61032 5.21967 6.46967C5.36032 6.32902 5.55109 6.25 5.75 6.25ZM5.75 9.25H7.25C7.44891 9.25 7.63968 9.32902 7.78033 9.46967C7.92098 9.61032 8 9.80109 8 10C8 10.1989 7.92098 10.3897 7.78033 10.5303C7.63968 10.671 7.44891 10.75 7.25 10.75H5.75C5.55109 10.75 5.36032 10.671 5.21967 10.5303C5.07902 10.3897 5 10.1989 5 10C5 9.80109 5.07902 9.61032 5.21967 9.46967C5.36032 9.32902 5.55109 9.25 5.75 9.25ZM20 16H2V13.75H20V16Z" fill="white"/>
</svg>
