<svg width="25" height="24" viewBox="0 0 25 24" fill="none" xmlns="http://www.w3.org/2000/svg">
<path d="M12.5 2C10.5222 2 8.58879 2.58649 6.9443 3.6853C5.29981 4.78412 4.01809 6.3459 3.26121 8.17317C2.50433 10.0004 2.3063 12.0111 2.69215 13.9509C3.078 15.8907 4.03041 17.6725 5.42894 19.0711C6.82746 20.4696 8.60929 21.422 10.5491 21.8079C12.4889 22.1937 14.4996 21.9957 16.3268 21.2388C18.1541 20.4819 19.7159 19.2002 20.8147 17.5557C21.9135 15.9112 22.5 13.9778 22.5 12C22.5 10.6868 22.2413 9.38642 21.7388 8.17317C21.2363 6.95991 20.4997 5.85752 19.5711 4.92893C18.6425 4.00035 17.5401 3.26375 16.3268 2.7612C15.1136 2.25866 13.8132 2 12.5 2ZM12.5 20C10.9178 20 9.37104 19.5308 8.05544 18.6518C6.73985 17.7727 5.71447 16.5233 5.10897 15.0615C4.50347 13.5997 4.34504 11.9911 4.65372 10.4393C4.9624 8.88743 5.72433 7.46197 6.84315 6.34315C7.96197 5.22433 9.38743 4.4624 10.9393 4.15372C12.4911 3.84504 14.0997 4.00346 15.5615 4.60896C17.0233 5.21447 18.2727 6.23984 19.1518 7.55544C20.0308 8.87103 20.5 10.4177 20.5 12C20.5 14.1217 19.6572 16.1566 18.1569 17.6569C16.6566 19.1571 14.6217 20 12.5 20Z" fill="black" fill-opacity="0.12"/>
<path d="M12.5 11C10.5 11 10.5 10.37 10.5 10C10.5 9.63 11.2 9 12.5 9C13.8 9 13.89 9.64 13.9 10H15.9C15.8865 9.31875 15.6415 8.66241 15.2053 8.13896C14.769 7.61551 14.1676 7.25614 13.5 7.12V6H11.5V7.09C9.5 7.42 8.5 8.71 8.5 10C8.5 11.12 9.02 13 12.5 13C14.5 13 14.5 13.68 14.5 14C14.5 14.32 13.88 15 12.5 15C10.66 15 10.5 14.14 10.5 14H8.5C8.5 14.92 9.16 16.55 11.5 16.92V18H13.5V16.92C15.5 16.58 16.5 15.29 16.5 14C16.5 12.88 15.98 11 12.5 11Z" fill="black" fill-opacity="0.12"/>
</svg>
